<svg xmlns="http://www.w3.org/2000/svg" width="581.845" height="338" viewBox="0 0 581.845 338">
  <g id="Group_58" data-name="Group 58" transform="translate(-926.155 -1144)">
    <path id="Path_7" data-name="Path 7" d="M-70,.113,428.124,0c27.459,0,49.719,23.729,49.719,53V267c0,29.271-22.26,53-49.719,53H49.233Z" transform="translate(996.158 1162)" fill="#74e1ef"/>
    <g id="undraw_researching_22gp" transform="translate(921.114 945.654)">
      <path id="Path_138" data-name="Path 138" d="M870.979,710.276c-53.833-8.464-112.7-7.057-174.453,0,28.145-20.991,52.436-41.982,24.291-62.972,54.9,10.006,62.59,8.993,123.662,0C830.315,668.295,856.813,689.286,870.979,710.276Z" transform="translate(-337.598 -185.941)" fill="#221e41"/>
      <path id="Path_139" data-name="Path 139" d="M864.9,705.4c-51.956-7.81-108.772-6.512-168.371,0,27.164-19.367,50.608-38.734,23.444-58.1,52.986,9.232,60.408,8.3,119.351,0C825.65,666.671,851.225,686.038,864.9,705.4Z" transform="translate(-329.746 -185.941)" fill="#221e41" opacity="0.2"/>
      <path id="Path_140" data-name="Path 140" d="M865.957,721.814c-47.41-9.329-99.253-7.778-153.635,0,24.786-23.134,46.179-46.269,21.393-69.4,48.349,11.028,55.121,9.911,108.906,0C830.145,675.546,853.482,698.681,865.957,721.814Z" transform="translate(-347.632 -202.351)" fill="#221e41"/>
      <circle id="Ellipse_30" data-name="Ellipse 30" cx="25.261" cy="25.261" r="25.261" transform="translate(482.858 442.55)" fill="#2f2e41"/>
      <path id="Path_141" data-name="Path 141" d="M533.072,466.249l17.5,2.917,8.752,25.281-25.282,15.558-29.172-43.757h28.2Z" transform="translate(-139.625 -27.738)" fill="#f7a28f"/>
      <circle id="Ellipse_31" data-name="Ellipse 31" cx="40.84" cy="40.84" r="40.84" transform="translate(402.199 395.727)" fill="#f7a28f"/>
      <path id="Path_142" data-name="Path 142" d="M508.424,445.919s-99.182,10.7-116.686,8.751-25.282-3.889-25.282-3.889-11.668,15.558-5.834,22.365a42.072,42.072,0,0,0,11.669,9.724s10.7-2.917,18.475,0,86.542,15.558,100.155,3.89S508.424,445.919,508.424,445.919Z" transform="translate(-290.977 -158.126)" fill="#2f2e41"/>
      <path id="Path_143" data-name="Path 143" d="M516.9,668.542s-65.15-18.475-76.818-100.154v-7.779s-12.891,22.614-17.5,27.226c-5.348,5.348-24.309,53.481-23.337,58.343s0,6.807,0,6.807l-28.2-2.917v-8.752S386.11,596.1,387.082,585.4s37.437-85.083,37.437-85.083,13.613-28.2,36.95,0,25.282,47.646,25.282,47.646l30.144,58.343Z" transform="translate(-292.642 -163.909)" fill="#2f2e41"/>
      <path id="Path_144" data-name="Path 144" d="M362.3,444.937l-31.116-10.7s-29.172-21.392-22.365,0,37.923,68.067,46.674,63.2,19.276-16.93,16.931-18.675S354.524,464.385,362.3,444.937Z" transform="translate(-283.906 -155.2)" fill="#2f2e41"/>
      <path id="Path_145" data-name="Path 145" d="M368.4,659.259l-25.118,12.267s-30.376,4.673-13.435,13.435,63.672,18.109,66.009,9.93,1.41-21.75-1.048-21.389S375.41,675.615,368.4,659.259Z" transform="translate(-286.242 -187.593)" fill="#2f2e41"/>
      <path id="Path_146" data-name="Path 146" d="M525.009,618.841s-12.641,54.453,8.751,66.121,171.139,13.614,182.807-7.779S722.4,655.79,722.4,655.79l-31.116-35.006,25.282-1.944s0-7.779-8.752-8.752-35.978-10.7-59.315-3.889-36.95-13.613-36.95-13.613Z" transform="translate(-313.396 -178.384)" fill="#575a89"/>
      <path id="Path_147" data-name="Path 147" d="M304.788,270.29l-16.531,90.432,113.769-13.613,20.42-81.68Z" transform="translate(-109.705 0)" fill="#3f3d56"/>
      <path id="Path_148" data-name="Path 148" d="M309.2,274.239l-13.613,80.707,103.558-12.154,19.934-73.415Z" transform="translate(-110.718 -0.545)" fill="#fff"/>
      <path id="Path_149" data-name="Path 149" d="M291.835,376.965l-3.89-.972L286,379.882l31.116,86.542,2.926-1.119.963-5.688Z" transform="translate(-109.394 -15.271)" fill="#b3b3b3"/>
      <path id="Path_150" data-name="Path 150" d="M288.257,372.838l31.116,90.432,117.658-17.5L402.026,360.2Z" transform="translate(-109.705 -13.09)" fill="#d0cde1"/>
      <path id="Path_151" data-name="Path 151" d="M306.309,369.922v4.862l86.541-9.724-.972-4.862Z" transform="translate(-112.199 -13.09)" fill="#3f3d56"/>
      <path id="Path_152" data-name="Path 152" d="M308.565,381.359l13.613,37.923,88.487-10.7-15.558-35.978Z" transform="translate(-112.51 -14.804)" fill="#3f3d56"/>
      <path id="Path_153" data-name="Path 153" d="M629.872,592.957l-2.917-7.779s-22.365-38.9-34.033-31.116,24.31,45.7,24.31,45.7H628.9Z" transform="translate(-322.967 -172.921)" fill="#f7a28f"/>
      <path id="Path_154" data-name="Path 154" d="M549.6,598.788l-2.917-11.669s-7.779-35.978,5.834-34.033,17.5,35.978,17.5,35.978l-.972,7.779Z" transform="translate(-316.596 -172.917)" fill="#f7a28f"/>
      <path id="Path_155" data-name="Path 155" d="M573.125,600.279s-25.282-3.89-26.254,1.945-5.834,93.348,18.475,96.266S710.23,714.048,697.589,683.9,665.5,657.65,665.5,657.65L582.849,666.4Z" transform="translate(-316.783 -179.271)" fill="#575a89"/>
      <path id="Path_156" data-name="Path 156" d="M460.222,456.033l-25.768-17.989-17.017,13.127,21.393,23.337Z" transform="translate(-127.548 -23.842)" fill="#575a89"/>
      <path id="Path_157" data-name="Path 157" d="M386.976,479.224l3.889,36.95,67.095-3.89-58.343-.972Z" transform="translate(-123.341 -29.53)" opacity="0.2"/>
      <circle id="Ellipse_32" data-name="Ellipse 32" cx="48.619" cy="48.619" r="48.619" transform="translate(414.58 395.369)" fill="#2f2e41"/>
      <path id="Path_158" data-name="Path 158" d="M328.309,303.84l60.288-2.1,5.834-22.211L332.2,281.409Z" transform="translate(-115.237 -1.948)" fill="#575a89"/>
      <path id="Path_159" data-name="Path 159" d="M310.258,321.312l91.4-2.917.972-3.89-91.4,3.218Z" transform="translate(-112.744 -6.779)" fill="#e6e6e6"/>
      <path id="Path_160" data-name="Path 160" d="M308,332.594l91.4-2.918.972-3.889-91.4,3.218Z" transform="translate(-112.433 -8.337)" fill="#e6e6e6"/>
      <path id="Path_161" data-name="Path 161" d="M306.873,341.619l91.4-2.917.973-3.89-91.4,3.217Z" transform="translate(-112.277 -9.583)" fill="#e6e6e6"/>
    </g>
    <circle id="Ellipse_33" data-name="Ellipse 33" cx="33.5" cy="33.5" r="33.5" transform="translate(1010 1144)" fill="#e0fbff"/>
    <circle id="Ellipse_35" data-name="Ellipse 35" cx="44.5" cy="44.5" r="44.5" transform="translate(1419 1227)" fill="#d2f4fa"/>
    <circle id="Ellipse_34" data-name="Ellipse 34" cx="24.5" cy="24.5" r="24.5" transform="translate(981 1351)" fill="#dbf7fd"/>
  </g>
</svg>
