<svg xmlns="http://www.w3.org/2000/svg" width="214" height="57.651" viewBox="0 0 214 57.651">
  <g id="Group_59" data-name="Group 59" transform="translate(-340 -23.174)">
    <g id="graduate-cap" transform="translate(218 46.101)">
      <g id="Group_2" data-name="Group 2" transform="translate(122 -22.927)">
        <path id="Path_3" data-name="Path 3" d="M93.338,47.925a3.489,3.489,0,0,0-1.986-3.132v-21.6a.665.665,0,0,0-.012-1.246L46.77,6.225a2.639,2.639,0,0,0-1.766,0L.441,21.949a.665.665,0,0,0-.018,1.246l44.5,17.321a2.683,2.683,0,0,0,1.924,0L88.279,24.381V44.79a3.489,3.489,0,0,0,.159,6.366A29.031,29.031,0,0,0,86.3,60.208a3.518,3.518,0,0,0,7.036,0,29.114,29.114,0,0,0-2.142-9.051A3.513,3.513,0,0,0,93.338,47.925Z" transform="translate(0 -6.073)" fill="#fff"/>
        <path id="Path_4" data-name="Path 4" d="M4.888,14.87c0,4.983.006,10.846.006,11.778,0,9.278,13.963,16.831,31.523,17.3,17.556-.473,31.52-8.017,31.52-17.3,0-.925,0-6.792.006-11.778l-30.571,11.9a2.652,2.652,0,0,1-1.924,0Z" transform="translate(9.472 10.973)" fill="#fff"/>
      </g>
    </g>
    <text id="uni_edu" transform="translate(447 64)" fill="#fff" font-size="28" font-family="Eina04-SemiBold, Eina04 â˜" font-weight="600"><tspan x="0" y="0">uni_edu</tspan></text>
  </g>
</svg>
