<svg xmlns="http://www.w3.org/2000/svg" xmlns:xlink="http://www.w3.org/1999/xlink" width="519.5" height="397.209" viewBox="0 0 519.5 397.209">
  <defs>
    <linearGradient id="linear-gradient" x1="0.5" x2="0.5" y2="1" gradientUnits="objectBoundingBox">
      <stop offset="0" stop-color="#efa2a3"/>
      <stop offset="1" stop-color="#a872b1"/>
    </linearGradient>
    <linearGradient id="linear-gradient-2" x1="0.5" x2="0.5" y2="1" gradientUnits="objectBoundingBox">
      <stop offset="0" stop-color="#eba0a4"/>
      <stop offset="1" stop-color="#fec2b0"/>
    </linearGradient>
  </defs>
  <g id="Group_4" data-name="Group 4" transform="translate(-443 -1715.892)">
    <path id="Blob_2" data-name="Blob 2" d="M164.368,248.294a56.012,56.012,0,0,0,12.659,2.692c35.425,3.409,72.864-26.481,82.2-65.628q.945-3.964,1.483-7.857a122.645,122.645,0,0,1,25.336-59.457A69.492,69.492,0,0,0,299.31,91.212c7.428-30.431-9.465-58.2-37.02-60.837a48.035,48.035,0,0,0-11.332.277c-16.994,2.409-32.791-2.981-43.986-14.439A53.9,53.9,0,0,0,173.736.3C147.666-2.512,113.87,14.456,97.194,44.9,85.181,66.822,67.969,85.66,47.3,98.016a99.4,99.4,0,0,0-44.826,61.06c-10.36,42.5,12.853,81.9,51.078,86.6a69.606,69.606,0,0,0,24.588-1.461A155.426,155.426,0,0,1,164.368,248.294Z" transform="translate(651.297 1723.01) rotate(56)" fill="url(#linear-gradient)"/>
    <path id="Blob_1" data-name="Blob 1" d="M212.85,230.985a104.06,104.06,0,0,0,15.9,4.373c43.824,8.4,84.708-13.851,89.76-48.862a52.625,52.625,0,0,0,.538-7.085c.159-19.225,7.158-37.438,21.305-51.528A40.892,40.892,0,0,0,352.2,104.9c4.138-27.191-21-55.5-55.085-62.024a79.021,79.021,0,0,0-13.8-1.417,93.505,93.505,0,0,1-56.07-19.922,101.863,101.863,0,0,0-43.177-19.7c-32.3-6.468-70.831,4.311-86.264,30.144C86.693,50.587,68.725,65.555,45.477,73.987,21.557,82.662,4.18,100.7.625,124.125-5.137,162.1,29.607,202.16,77.06,212.179a111.4,111.4,0,0,0,29.8,2.275C142.2,212.29,178.641,218.572,212.85,230.985Z" transform="matrix(-0.966, 0.259, -0.259, -0.966, 962.5, 1944.947)" fill="url(#linear-gradient-2)"/>
    <g id="undraw_social_friends_nsbv" transform="translate(527.256 1790.878)">
      <path id="Path_17" data-name="Path 17" d="M277.171,363.013l3.359,10.315,4.558-3.838-2.4-8.156Z" transform="translate(-172.614 -225.028)" fill="#ffb9b9"/>
      <path id="Path_18" data-name="Path 18" d="M322.014,350.661l1.2,16.072,29.026.72,12.714,29.026,6.957-2.879s-7.916-27.347-11.514-35.982-17.271-2.4-17.271-2.4l-1.2-2.4Z" transform="translate(-260.635 -256.574)" fill="#2f2e41"/>
      <path id="Path_19" data-name="Path 19" d="M441.563,481.818s.48,7.676,1.2,8.156,6.237-.48,6.237-.48,1.658.368,8.4-1.439c7.575-2.032-.96-5.037-.96-5.037s-5.517-3.6-7.916-5.277-4.078,1.919-4.078,1.919C444.922,481.1,441.563,481.818,441.563,481.818Z" transform="translate(-335.087 -335.436)" fill="#2f2e41"/>
      <path id="Path_20" data-name="Path 20" d="M950.333,571.681l.764,26.727,8.145,31.309s-1.782,5.345-.509,6.618,7.127,3.564,7.127,3.564l-4.836-66.691Z" transform="translate(-651.933 -394.218)" fill="#2f2e41"/>
      <path id="Path_21" data-name="Path 21" d="M959.4,741.768s2.9,6.39-1.162,6.971-22.851,2.13-21.689-1.162,15.3-6.39,15.3-6.39Z" transform="translate(-643.318 -499.781)" fill="#2f2e41"/>
      <path id="Path_22" data-name="Path 22" d="M975.483,508.793s-3.054,16.545-5.091,19.345S971.41,551.3,971.41,551.3s4.582,29.273,2.545,33.854-1.527,3.055-1.273,5.6.764,4.582,0,6.873a20.157,20.157,0,0,0-1.018,3.309c-.254,1.273,0,8.145,0,8.145s-10.945,3.818-12.727-1.782c0,0,2.546-3.564,1.782-6.364a33.887,33.887,0,0,1-1.273-8.654v-5.346l-11.709-43.782-2.8-15.782s.764-16.036,3.564-17.564S975.483,508.793,975.483,508.793Z" transform="translate(-648.573 -355.003)" fill="#2f2e41"/>
      <path id="Path_23" data-name="Path 23" d="M964.061,770.153s3.818,8.4-1.527,9.164-30.036,2.8-28.509-1.527,20.109-8.4,20.109-8.4Z" transform="translate(-641.734 -517.345)" fill="#2f2e41"/>
      <circle id="Ellipse_4" data-name="Ellipse 4" cx="10.182" cy="10.182" r="10.182" transform="translate(307.307 60.128)" fill="#f7a28f"/>
      <path id="Path_24" data-name="Path 24" d="M998.979,298.82l-.19,13-12.483.042s3.168-10.179,1.749-12.307S998.979,298.82,998.979,298.82Z" transform="translate(-674.336 -224.011)" fill="#f7a28f"/>
      <path id="Path_25" data-name="Path 25" d="M954.6,340.162s8.909-11.455,15.782-6.618,9.418,16.291,9.418,16.291l-1.527,32.073s-3.818,4.582-1.527,7.636,3.564,2.291,1.782,4.582-3.818,4.073-3.055,4.836-.763,1.273-.763,1.273L947.727,401s.763-1.018-1.527-4.073.509-7.127,0-8.655-1.018.254-1.273-3.309S954.6,340.162,954.6,340.162Z" transform="translate(-648.563 -245.172)" fill="#3f3d56"/>
      <path id="Path_26" data-name="Path 26" d="M962.8,522.944s-.509,6.364-4.327,7.382a3,3,0,0,1-3.289-1.405,6.251,6.251,0,0,1-.2-7.013l.943-1.509Z" transform="translate(-654.222 -362.281)" fill="#f7a28f"/>
      <path id="Path_27" data-name="Path 27" d="M996.456,317.468a44.509,44.509,0,0,1,0,5.855,2.434,2.434,0,0,0,0,2.291c.509.764.255,3.309-.254,3.564s1.018,2.545.509,4.073a11.047,11.047,0,0,1-1.273,2.546c-.255.509-.665,1.421-.665,1.421s-7.481-15.93-13.59-12.112a44.279,44.279,0,0,1-10.945,5.091S973.548,312.377,996.456,317.468Z" transform="translate(-664.329 -235.333)" fill="#3f3d56"/>
      <path id="Path_28" data-name="Path 28" d="M977.109,350.254s8.145.764,7.636,11.455.764,27.491.764,27.491-14,21.382-16.291,22.909-2.545,1.273-2.291,2.546.509,2.291-.509,3.309a8.789,8.789,0,0,1-2.036,1.527s-8.146-2.8-7.382-5.345,4.327-6.618,4.327-6.618,6.109-9.927,6.364-11.454.255-1.273,1.018-2.036,2.8-3.818,2.8-5.345v-4.836l-2.134-25.846a7.493,7.493,0,0,1,1.987-5.8A6.483,6.483,0,0,1,977.109,350.254Z" transform="translate(-656.053 -256.282)" fill="#3f3d56"/>
      <path id="Path_29" data-name="Path 29" d="M975.531,254.134a4.149,4.149,0,0,1-3.844-.88,3.14,3.14,0,0,1-.622-3.759A4.959,4.959,0,0,1,974,247.629a25.957,25.957,0,0,1,7.709-1.176,6.921,6.921,0,0,1,3.614.751c.528.319.975.757,1.5,1.086a18.667,18.667,0,0,0,3.164,1.225,8.119,8.119,0,0,1,4.627,4.9,9.8,9.8,0,0,1,.45,2.3,12.61,12.61,0,0,1-1.1,6.25c-1.42,3.1-4.124,5.7-4.505,9.087-1.455-1.222-1.882-3.271-3.009-4.8a6.224,6.224,0,0,0-3.4-2.306,1.977,1.977,0,0,1-1.029-.46,1.7,1.7,0,0,1-.322-.927l-.7-5.03a4.335,4.335,0,0,0-1.12-2.814,3.981,3.981,0,0,0-1.668-.724,26.9,26.9,0,0,0-4.354-.71" transform="translate(-664.61 -191.677)" fill="#2f2e41"/>
      <path id="Path_30" data-name="Path 30" d="M1005.78,463.234l-14.289,18.543S1004.648,470.779,1005.78,463.234Z" transform="translate(-677.565 -326.681)" opacity="0.1"/>
      <path id="Path_31" data-name="Path 31" d="M820.232,307.563l.135,17.513-8.3,12.449,6.79-13.958Z" transform="translate(-505.731 -191.541)" opacity="0.1"/>
      <path id="Path_32" data-name="Path 32" d="M401.5,383.834H314.954V382.05H275.71v1.784H188.8a5.854,5.854,0,0,0-5.854,5.854V508.2a5.854,5.854,0,0,0,5.854,5.854H401.5a5.854,5.854,0,0,0,5.854-5.854V389.688a5.854,5.854,0,0,0-5.854-5.854Z" transform="translate(-174.03 -276.122)" fill="#3f3d56"/>
      <rect id="Rectangle_14" data-name="Rectangle 14" width="208.71" height="117.734" transform="translate(16.768 118.058)" opacity="0.1"/>
      <circle id="Ellipse_5" data-name="Ellipse 5" cx="2.141" cy="2.141" r="2.141" transform="translate(118.804 110.566)" fill="#fc0"/>
      <rect id="Rectangle_15" data-name="Rectangle 15" width="207.392" height="117.69" transform="translate(17.119 117.999)" fill="#e6e6e6"/>
      <rect id="Rectangle_16" data-name="Rectangle 16" width="195.532" height="102.231" transform="translate(23.049 126.041)" fill="#fff"/>
      <rect id="Rectangle_17" data-name="Rectangle 17" width="50.242" height="81.017" transform="translate(40.816 136.648)" fill="#e6e6e6"/>
      <rect id="Rectangle_18" data-name="Rectangle 18" width="41.868" height="22.301" transform="translate(99.731 136.648)" fill="#f87f4f"/>
      <rect id="Rectangle_19" data-name="Rectangle 19" width="41.868" height="23.994" transform="translate(99.731 165.16)" fill="#e6e6e6"/>
      <rect id="Rectangle_20" data-name="Rectangle 20" width="41.868" height="22.301" transform="translate(99.731 195.364)" fill="#e6e6e6"/>
      <rect id="Rectangle_21" data-name="Rectangle 21" width="50.242" height="35.307" transform="translate(150.571 136.648)" fill="#e6e6e6"/>
      <rect id="Rectangle_22" data-name="Rectangle 22" width="50.242" height="35.307" transform="translate(150.571 182.359)" fill="#f87f4f"/>
      <path id="Path_33" data-name="Path 33" d="M398.493,717.729H378.124v-1.468a.291.291,0,0,0-.291-.291h-6.984a.291.291,0,0,0-.291.291h0v1.468h-4.365v-1.468a.291.291,0,0,0-.291-.291h-6.984a.291.291,0,0,0-.291.291h0v1.468h-4.365v-1.468a.291.291,0,0,0-.291-.291h-6.984a.291.291,0,0,0-.291.291h0v1.468h-4.365v-1.468a.291.291,0,0,0-.291-.291h-6.984a.291.291,0,0,0-.291.291h0v1.468H330.4v-1.468a.291.291,0,0,0-.291-.291h-6.983a.291.291,0,0,0-.291.291h0v1.468h-4.365v-1.468a.291.291,0,0,0-.291-.291H311.2a.291.291,0,0,0-.291.291h0v1.468h-4.365v-1.468a.291.291,0,0,0-.291-.291h-54.7a.291.291,0,0,0-.291.291h0v1.468h-4.365v-1.468a.291.291,0,0,0-.291-.291h-6.984a.291.291,0,0,0-.291.291v1.468h-4.365v-1.468a.291.291,0,0,0-.291-.291h-6.984a.291.291,0,0,0-.291.291h0v1.468H223.03v-1.468a.291.291,0,0,0-.291-.291h-6.984a.291.291,0,0,0-.291.291h0v1.468H211.1v-1.468a.291.291,0,0,0-.291-.291h-6.984a.291.291,0,0,0-.291.291h0v1.468H199.17v-1.468a.291.291,0,0,0-.291-.291H191.9a.291.291,0,0,0-.291.291h0v1.468H187.24v-1.468a.291.291,0,0,0-.291-.291h-6.984a.291.291,0,0,0-.291.291h0v1.468H166.289a6.984,6.984,0,0,0-6.984,6.984v3.158a6.984,6.984,0,0,0,6.983,6.983h232.2a6.984,6.984,0,0,0,6.984-6.983v-3.158a6.984,6.984,0,0,0-6.984-6.984Z" transform="translate(-159.305 -484.077)" fill="#3f3d56"/>
      <path id="Path_34" data-name="Path 34" d="M281.339,173.137a11.348,11.348,0,0,0-2.221,5.833c-.259,2.573-1.012,6.688-3.2,8.851a21.864,21.864,0,0,0-4.453,5.767l1.113,1.236c0-2.472,1.484-2.884,1.484-2.884l-.371,2.884c10.02,9.475,32.286.824,32.286.824l-.742-7.415c1.855.824,2.6,6.591,2.6,6.591L310.8,194a168.413,168.413,0,0,1-8.535-17.3c-3.34-8.239-8.535-6.179-8.535-6.179C287.6,167.246,283.558,170.281,281.339,173.137Z" transform="translate(-229.152 -143.504)" fill="#2f2e41"/>
      <path id="Path_35" data-name="Path 35" d="M390.055,135.123l3.6-23.508s-3.838-9.355,2.639-10.315,2.159,11.274,2.159,11.274l-2.159,22.549Z" transform="translate(-303.009 -101.246)" fill="#f7a28f"/>
      <path id="Path_36" data-name="Path 36" d="M382.425,480.636c1.2,1.919,1.439,11.754,1.439,11.754l8.4-5.277-2.4-8.636Z" transform="translate(-298.257 -336.174)" fill="#f7a28f"/>
      <path id="Path_37" data-name="Path 37" d="M320.57,347.482s-10.555,0-16.312,3.358c-1.85,1.079-2.388,3.026-2.264,5.172a11.147,11.147,0,0,0,10.5,10.376l16.23,1c-2.4,6.717,3.118,32.864,3.118,32.864l8.636-1.2s-1.2-8.876-.96-9.355,2.4-19.191.96-29.026-21.109-5.757-21.109-5.757Z" transform="translate(-248.157 -254.594)" fill="#2f2e41"/>
      <path id="Path_38" data-name="Path 38" d="M384.1,501.916s-.72,6.956-.48,7.916,10.075,1.439,18.951-1.2-1.2-5.517-1.2-5.517-6-4.078-7.676-5.517-4.078,1.919-4.078,1.919C389.133,501.676,384.1,501.916,384.1,501.916Z" transform="translate(-298.968 -347.858)" fill="#2f2e41"/>
      <circle id="Ellipse_6" data-name="Ellipse 6" cx="8.636" cy="8.636" r="8.636" transform="translate(51.951 49.173) rotate(-80.783)" fill="#f7a28f"/>
      <path id="Path_39" data-name="Path 39" d="M309.787,225.484c3.118,4.558-.72,7.2-.72,7.2l-1.679,12.474s17.991,1.679,21.11-.72-3.6-10.315-6-11.034-2.879-10.555-2.879-10.555Z" transform="translate(-251.527 -176.974)" fill="#f7a28f"/>
      <path id="Path_40" data-name="Path 40" d="M297.552,241.7l-9.465-1.481-1.079,10.195s.48,22.789,0,26.867,8.156,8.636,8.156,8.636,12.474-.96,14.873-2.159,10.075,1.2,10.075,1.2a6.485,6.485,0,0,0,2.519-.36c1.439-.48-3.718-34.663-3.718-34.663l-4.558-10.555-5.517,2.159-1.679,7.916Z" transform="translate(-238.823 -187.27)" fill="#f87f4f"/>
      <path id="Path_41" data-name="Path 41" d="M203.429,112.014l9.6-12.234,6.717-16.552-9.355-3.6L206.548,93.3l-6.717,8.156-.24,1.439Z" transform="translate(-124.299 -49.591)" fill="#f87f4f"/>
      <path id="Path_42" data-name="Path 42" d="M288.92,314.6l23.765.895s8.857-4.88,10.548,1.445-10.955,3.43-10.955,3.43l-22.648.426Z" transform="translate(-240.025 -233.554)" fill="#f7a28f"/>
      <path id="Path_43" data-name="Path 43" d="M280.226,267.572l11.035.72,1.439,7.436s-13.433-.24-18.711-.48,0-22.549.72-29.266,4.318-4.8,4.318-4.8l2.159,1.679Z" transform="translate(-229.282 -188.238)" fill="#f87f4f"/>
      <path id="Path_44" data-name="Path 44" d="M137.362,184.147l9.6,3.838L136.4,185.826l-.72-13.673Z" transform="translate(-84.499 -107.212)" opacity="0.15"/>
      <path id="Path_45" data-name="Path 45" d="M158.885,91.349l-15.844.377L141.155,83.8h17.73Z" transform="translate(-87.907 -52.191)" fill="#2f2e41"/>
    </g>
  </g>
</svg>
